<svg xmlns="http://www.w3.org/2000/svg" style="display:none" aria-hidden="true">

  <!-- Hamburger menu -->
  <symbol id="icon-menu" viewBox="0 0 24 24" fill="none">
    <line x1="3" y1="6" x2="21" y2="6" stroke="currentColor" stroke-width="2" stroke-linecap="round"/>
    <line x1="3" y1="12" x2="21" y2="12" stroke="currentColor" stroke-width="2" stroke-linecap="round"/>
    <line x1="3" y1="18" x2="21" y2="18" stroke="currentColor" stroke-width="2" stroke-linecap="round"/>
  </symbol>

  <!-- Close X -->
  <symbol id="icon-close" viewBox="0 0 24 24" fill="none">
    <line x1="18" y1="6" x2="6" y2="18" stroke="currentColor" stroke-width="2" stroke-linecap="round"/>
    <line x1="6" y1="6" x2="18" y2="18" stroke="currentColor" stroke-width="2" stroke-linecap="round"/>
  </symbol>

  <!-- Arrow left -->
  <symbol id="icon-arrow-left" viewBox="0 0 24 24" fill="none">
    <path d="M12.707 17.293L8.414 13H18V11H8.414L12.707 6.70697L11.293 5.29297L4.586 12L11.293 18.707L12.707 17.293Z" fill="currentColor"/>
  </symbol>

  <!-- Arrow right -->
  <symbol id="icon-arrow-right" viewBox="0 0 24 24" fill="none">
    <path d="M11.293 17.293L12.707 18.707L19.414 12L12.707 5.29297L11.293 6.70697L15.586 11H6V13H15.586L11.293 17.293Z" fill="currentColor"/>
  </symbol>

  <!-- Phone -->
  <symbol id="icon-phone" viewBox="0 0 24 24" fill="none">
    <path d="M22 16.92v3a2 2 0 01-2.18 2 19.79 19.79 0 01-8.63-3.07A19.5 19.5 0 013.09 10.8a19.79 19.79 0 01-3.07-8.67A2 2 0 012 0h3a2 2 0 012 1.72c.127.96.361 1.903.7 2.81a2 2 0 01-.45 2.11L6.09 7.91a16 16 0 006 6l1.27-1.27a2 2 0 012.11-.45c.907.339 1.85.573 2.81.7A2 2 0 0122 16.92z" stroke="currentColor" stroke-width="2" stroke-linecap="round" stroke-linejoin="round"/>
  </symbol>

  <!-- Location pin -->
  <symbol id="icon-location" viewBox="0 0 24 24" fill="none">
    <path d="M21 10c0 7-9 13-9 13s-9-6-9-13a9 9 0 0118 0z" stroke="currentColor" stroke-width="2" stroke-linecap="round" stroke-linejoin="round"/>
    <circle cx="12" cy="10" r="3" stroke="currentColor" stroke-width="2"/>
  </symbol>

  <!-- Facebook -->
  <symbol id="icon-facebook" viewBox="0 0 24 24" fill="currentColor">
    <path d="M18 2h-3a5 5 0 00-5 5v3H7v4h3v8h4v-8h3l1-4h-4V7a1 1 0 011-1h3z"/>
  </symbol>

  <!-- Instagram -->
  <symbol id="icon-instagram" viewBox="0 0 24 24" fill="none">
    <rect x="2" y="2" width="20" height="20" rx="5" ry="5" stroke="currentColor" stroke-width="2"/>
    <circle cx="12" cy="12" r="4" stroke="currentColor" stroke-width="2"/>
    <circle cx="17.5" cy="6.5" r="1.5" fill="currentColor"/>
  </symbol>

  <!-- X / Twitter -->
  <symbol id="icon-x" viewBox="0 0 24 24" fill="currentColor">
    <path d="M18.244 2.25h3.308l-7.227 8.26 8.502 11.24H16.17l-4.714-6.231-5.401 6.231H2.746l7.73-8.835L1.254 2.25H8.08l4.253 5.622 5.91-5.622zm-1.161 17.52h1.833L7.084 4.126H5.117z"/>
  </symbol>

  <!-- Flower mark (compact) — used for the small mobile-menu logo -->
  <symbol id="logo-flower" viewBox="0 0 96 85" fill="none">
    <path d="M19.1546 8.17091C20.6272 5.9463 22.2601 4.06228 24.4992 2.56996C27.6042 0.501308 31.3029 -0.539436 35.008 0.280782C37.995 0.942238 40.4248 2.95119 42.0607 5.45761C43.744 9.00385 45.2199 12.5343 46.3128 16.3098C46.536 17.0779 46.8191 18.6047 47.1332 20.2984C47.6902 23.3009 48.3448 26.8295 48.9336 27.5843C49.4682 32.7817 45.6147 40.4072 42.3836 44.3786C41.6098 45.3412 40.7602 46.2422 39.8443 47.0732C45.4873 56.3025 48.6824 67.0938 49.7035 77.8473C52.1966 69.4939 54.7658 61.1633 57.4142 52.8569C53.2058 46.3652 53.5689 35.8099 55.1486 28.5004C56.7203 21.2219 60.2384 13.3091 66.7684 9.2144C67.4945 8.76032 68.2483 8.35244 69.0103 7.9572C73.6216 13.7083 75.353 20.0993 74.555 27.4055C73.486 37.2206 67.9771 46.3979 60.2825 52.4943L59.9632 52.7458C59.3523 54.9196 58.6491 57.0856 57.9458 59.2527C56.9814 62.2227 56.0166 65.1948 55.2881 68.1914C55.3301 68.1745 55.3727 68.1582 55.4152 68.1419C55.4943 68.1118 55.5733 68.0814 55.6511 68.0465C56.5236 67.6565 58.0844 65.2347 59.3846 63.2172C60.0517 62.1818 60.6504 61.2529 61.0522 60.7597C67.8256 52.4354 77.0284 47.4636 87.9303 47.6988C89.9806 47.7425 92.4378 47.8198 94.3885 48.394C95.3299 48.6702 95.4892 48.8183 96 49.6353C95.6887 55.4055 88.0896 64.5249 83.7299 68.4381C74.7427 76.5049 63.5771 81.1461 52.2885 85C51.8289 84.8979 51.5733 84.8411 51.0555 84.7261L47.1046 83.8485L45.0722 83.397L43.2016 82.8307L43.329 82.498C43.096 81.5897 41.7535 81.3353 40.8121 81.1567L40.8001 81.1544C40.714 81.1382 40.6315 81.1225 40.5537 81.1071C39.4512 80.8874 38.3363 80.672 37.2141 80.4551L37.1961 80.4517C24.9079 78.078 11.7018 75.5269 3.58031 65.1545C2.19252 63.3823 -0.248301 59.8739 0.0357965 57.648C1.91672 56.0426 7.4664 55.483 9.87464 55.3481C22.0588 54.664 33.564 61.1474 41.1351 70.313C41.8886 71.2241 42.5742 72.3473 43.2636 73.4769C44.2345 75.0678 45.2133 76.6713 46.4007 77.7128L46.8714 76.8388C45.5511 66.514 43.1496 57.2672 37.457 48.4625C33.4645 49.6429 29.7615 49.9831 25.613 49.2238C22.9632 48.7383 18.6869 47.4055 17.0863 45.1236C16.6214 44.3913 13.9379 43.0666 11.315 41.7719C9.28106 40.7677 7.28359 39.7816 6.38565 39.1039C2.59182 36.2397 0.715654 32.4359 0.0327456 27.7932L0.0166369 27.4019C-0.154945 22.2292 1.0975 17.6103 4.7704 13.805C8.62427 9.81214 13.7288 8.26286 19.1546 8.17091Z" fill="#353C3A"/>
    <path d="M19.1533 8.17091C20.6261 5.94627 22.2588 4.06229 24.4982 2.56991C27.6029 0.501267 31.3019 -0.539427 35.0068 0.280787C37.9938 0.942211 40.4235 2.95115 42.0594 5.45756C36.9419 6.93562 35.1967 8.89801 32.2293 13.2892C31.449 15.4279 30.7805 17.6657 30.5914 19.9456C34.1919 23.1115 36.5055 26.6741 36.825 31.5774C36.8633 32.1633 36.9068 32.2723 36.5861 32.7471L35.2777 32.361C34.1117 33.2107 33.8197 34.6585 33.6023 36.0156C33.2146 38.4392 33.1575 41.0527 33.2054 43.5054C30.2013 42.6282 27.5566 42.3238 24.43 42.4691C21.8571 43.1042 19.4294 43.8448 17.085 45.1235C16.2597 43.8233 8.44006 40.6555 6.38452 39.1038C2.59058 36.2397 0.714539 32.4359 0.031621 27.7932L0.0152842 27.402C-0.156243 22.2292 1.09629 17.6103 4.76937 13.805C8.62315 9.81214 13.7275 8.26284 19.1533 8.17091Z" fill="#EAE9E8"/>
    <path d="M19.1533 8.17091C20.6261 5.94627 22.2588 4.06229 24.4982 2.56991C27.6029 0.501267 31.3019 -0.539427 35.0068 0.280787C37.9938 0.942211 40.4235 2.95115 42.0594 5.45756C36.9419 6.93562 35.1967 8.89801 32.2293 13.2892C31.449 15.4279 30.7805 17.6657 30.5914 19.9456L26.9973 18.499C25.5633 18.5372 22.7382 18.2499 21.51 18.8683L19.926 19.6368C19.3153 20.1908 18.602 21.0257 17.9 21.4288L16.5729 23.7152L15.6538 23.7717C11.3816 23.6953 7.34786 24.1601 3.43784 26.0007C2.33248 26.5213 1.17248 27.4477 0.031621 27.7932L0.0152842 27.402C-0.156243 22.2292 1.09629 17.6103 4.76937 13.805C8.62315 9.81214 13.7275 8.26284 19.1533 8.17091Z" fill="#DB8778"/>
    <path d="M26.9984 18.499C27.6526 16.7503 28.2039 14.6001 29.555 13.2661C30.7744 12.7742 31.0197 12.9354 32.2304 13.2892C31.4501 15.4279 30.7816 17.6656 30.5925 19.9456L26.9984 18.499Z" fill="#353C3A"/>
    <path d="M19.926 19.6368C18.6347 18.7509 17.1496 17.8467 16.1045 16.6659C15.4268 15.9006 15.0717 15.0677 15.1192 14.0473L15.7985 13.713C18.6583 14.3386 19.8809 16.6723 21.51 18.8683L19.926 19.6368Z" fill="#353C3A"/>
    <path d="M15.6529 23.7716C15.1148 23.7052 14.5084 23.6574 13.9863 23.5038C13.1139 23.2471 12.9735 22.8866 12.642 22.1388C13.0141 21.6182 13.1031 21.4746 13.6939 21.2155C15.1219 20.5895 16.5001 20.9066 17.8991 21.4288L16.572 23.7151L15.6529 23.7716Z" fill="#353C3A"/>
    <path d="M22.7792 10.4906C23.2619 10.6988 23.7354 10.9471 24.0405 11.3936C25.2643 13.1865 25.0593 16.7654 24.8371 18.8428L23.1362 18.339C22.9032 18.0843 22.7225 17.8817 22.5789 17.5637C21.5765 15.3463 21.9906 12.6974 22.7792 10.4906Z" fill="#353C3A"/>
    <path d="M15.6555 23.7717L16.5746 23.7152C15.4544 27.942 14.8505 32.217 17.1956 36.1883C18.8694 39.023 21.5847 40.9313 24.4317 42.4691C21.8588 43.1042 19.4311 43.8448 17.0867 45.1235C16.2614 43.8233 8.44176 40.6555 6.38623 39.1038C2.59228 36.2397 0.716243 32.4359 0.0333252 27.7932C1.17418 27.4477 2.33419 26.5212 3.43954 26.0007C7.34956 24.1601 11.3833 23.6953 15.6555 23.7717Z" fill="#EBB19F"/>
    <path d="M55.2879 68.1913C55.4076 68.1432 55.5312 68.1002 55.6509 68.0465C56.9713 67.4563 59.8673 62.2138 61.052 60.7597C67.8254 52.4354 77.028 47.4635 87.93 47.6987C89.9803 47.7425 92.4375 47.8197 94.3881 48.394C95.3296 48.6702 95.4891 48.8182 95.9997 49.6352C95.6886 55.4054 88.0895 64.5248 83.7295 68.4381C74.7423 76.5049 63.577 81.146 52.2881 84.9999C58.152 77.5918 65.0131 70.3221 72.3529 64.3665C74.9058 62.2946 85.6881 55.711 86.47 54.3567C86.1229 54.1311 86.075 53.9874 85.6442 54.0499C75.8951 55.4647 57.1149 75.4471 51.283 83.0021C52.0209 77.858 53.2894 73 55.2879 68.1913Z" fill="#97A898"/>
    <path d="M43.2014 82.8306L43.3291 82.4979C43.0738 81.5026 41.4861 81.2925 40.5535 81.107C27.3762 78.4805 12.4478 76.4795 3.58021 65.1545C2.19244 63.3823 -0.248431 59.8738 0.035586 57.648C1.9168 56.0426 7.4663 55.483 9.87446 55.3481C22.0589 54.664 33.564 61.1473 41.1351 70.3129C42.9501 72.5073 44.3702 75.9319 46.4006 77.7128L46.8713 76.8388C47.0787 78.0682 47.1625 79.0356 46.983 80.284C45.5191 79.816 43.2054 76.8169 41.8292 75.7301C34.0634 69.5882 20.4418 61.2353 10.1637 61.5298L9.89801 61.8915C12.4582 63.8806 16.7842 64.6709 19.8378 65.7275C29.0496 68.9157 39.3209 74.9608 45.192 82.9114L44.8768 83.2648C44.3662 83.149 43.6482 83.0826 43.2014 82.8306Z" fill="#97A898"/>
    <path d="M69.0083 7.95712C73.6196 13.7082 75.3508 20.0991 74.553 27.4055C73.484 37.2206 67.9751 46.3977 60.2804 52.4942L59.9613 52.7457C61.7404 43.988 63.0607 34.7563 65.6695 26.2275C66.2399 24.3721 67.5084 21.022 66.567 19.2559L65.9088 19.5185C61.8919 25.8613 59.8575 44.5408 57.4123 52.8568C53.2039 46.3651 53.5669 35.8098 55.1465 28.5003C56.7182 21.2218 60.2365 13.309 66.7665 9.2143C67.4925 8.76022 68.2464 8.35231 69.0083 7.95712Z" fill="#97A898"/>
    <path d="M32.2293 13.2892C35.1967 8.89803 36.9419 6.93564 42.0594 5.45758C43.7428 9.00388 45.2187 12.5343 46.3117 16.3098C46.93 18.4397 48.011 26.4035 48.9325 27.5842C45.6615 28.2437 43.3918 29.9991 41.5728 32.7618C40.5604 34.3008 39.7677 36.0546 39.0353 37.7436C38.2252 36.248 36.914 34.403 36.5861 32.7471C36.9068 32.2723 36.8633 32.1633 36.825 31.5775C36.5055 26.6741 34.1919 23.1115 30.5914 19.9456C30.7805 17.6657 31.4491 15.4279 32.2293 13.2892Z" fill="#EBB19F"/>
  </symbol>

  <!-- Full Flora wordmark logo — used in header and footer -->
  <symbol id="logo-flora" viewBox="0 0 294 126" fill="none">
    <path d="M126.33 2.61251C124.705 3.69806 123.52 5.06846 122.452 6.68667C118.514 6.75354 114.81 7.88049 112.013 10.7849C109.348 13.5529 108.439 16.9126 108.563 20.6753L108.575 20.9599C109.07 24.337 110.432 27.1038 113.185 29.1872C113.837 29.6802 115.286 30.3975 116.762 31.1279C118.666 32.0697 120.613 33.0333 120.951 33.5659C122.112 35.2258 125.215 36.1953 127.138 36.5485C130.149 37.1008 132.836 36.8533 135.734 35.9947C139.865 42.3992 141.607 49.1253 142.566 56.6356L142.224 57.2713C141.362 56.5138 140.652 55.3473 139.947 54.1901C139.447 53.3685 138.95 52.5514 138.403 51.8887C132.908 45.2216 124.559 40.5057 115.717 41.0033C113.969 41.1014 109.942 41.5084 108.577 42.6762C108.371 44.2953 110.142 46.8474 111.149 48.1364C117.043 55.6813 126.627 57.5369 135.544 59.2636C136.363 59.4221 137.177 59.5796 137.981 59.7403C138.04 59.7521 138.103 59.764 138.168 59.7765C138.852 59.9063 139.826 60.0914 139.995 60.752L139.902 60.9941C130.798 59.4618 121.291 60.5668 113.616 66.0687C107.055 70.7716 103.289 78.1951 102.017 86.049C100.508 95.3712 102.083 105.804 107.695 113.565C112.232 119.84 118.932 123.821 126.561 125.027C134.991 126.36 144.152 124.793 151.12 119.692C157.731 114.85 161.475 107.45 162.687 99.4642C164.146 89.8528 162.806 79.635 156.921 71.6791C154.379 68.2433 151.38 65.9057 147.727 63.7519C147.648 63.7053 147.568 63.6609 147.489 63.6171C147.04 63.368 146.62 63.1348 146.497 62.572C154.689 59.7687 162.792 56.3927 169.314 50.5249C172.478 47.6785 177.992 41.045 178.218 36.8478C177.848 36.2535 177.732 36.1458 177.049 35.9449C175.633 35.5272 173.85 35.471 172.362 35.4392C164.451 35.2681 157.772 38.8846 152.857 44.9397C152.565 45.2984 152.131 45.9741 151.646 46.7273C150.703 48.1948 149.57 49.9564 148.937 50.2401C148.881 50.2654 148.823 50.2875 148.766 50.3095C148.735 50.3213 148.704 50.3332 148.674 50.3455C149.202 48.1657 149.902 46.0038 150.602 43.8434C151.113 42.2671 151.623 40.6916 152.066 39.1104L152.298 38.9274C157.882 34.4929 161.88 27.8174 162.656 20.6779C163.235 15.3633 161.978 10.7145 158.632 6.53122C158.079 6.81868 157.532 7.11539 157.005 7.4457C152.266 10.4242 149.713 16.1799 148.572 21.4743C147.426 26.7912 147.162 34.4691 150.216 39.1911C148.295 45.2332 146.43 51.2929 144.621 57.3692C143.88 49.5471 141.561 41.6975 137.466 34.9841C138.131 34.3797 138.747 33.7243 139.309 33.024C141.654 30.1353 144.45 24.5885 144.062 20.8079C143.635 20.2587 143.16 17.6926 142.756 15.5082C142.528 14.2762 142.322 13.1656 142.16 12.6069C141.367 9.86056 140.296 7.29256 139.074 4.71298C137.887 2.88984 136.124 1.42852 133.956 0.947403C131.268 0.35078 128.583 1.10779 126.33 2.61251ZM129.156 62.9738C132.954 62.599 136.46 62.9761 139.763 65.0552C145.096 68.4117 147.678 74.6941 149.018 80.5946C151.317 90.7305 151.305 107.201 145.481 116.25C143.11 119.933 140.053 121.728 135.863 122.637C131.954 123.057 128.23 122.668 124.879 120.457C119.374 116.825 116.957 109.923 115.684 103.741C113.55 93.3853 113.259 78.4927 119.397 69.3187C121.854 65.6469 124.911 63.8472 129.156 62.9738Z" fill="#353C3A"/>
    <path d="M122.45 6.68667C123.519 5.06847 124.704 3.69807 126.329 2.61251C128.582 1.10779 131.267 0.350786 133.955 0.947408C136.123 1.42853 137.886 2.88983 139.073 4.71299C135.36 5.78812 134.093 7.21556 131.94 10.4097C131.373 11.9654 130.888 13.5931 130.751 15.2516C133.364 17.5544 135.043 20.1458 135.275 23.7126C135.303 24.1387 135.334 24.218 135.101 24.5633L134.152 24.2825C133.306 24.9006 133.094 25.9537 132.936 26.9409C132.655 28.7038 132.613 30.6048 132.648 32.3889C130.468 31.7509 128.549 31.5294 126.28 31.6351C124.413 32.0971 122.651 32.6358 120.95 33.5659C120.351 32.6202 114.676 30.3159 113.184 29.1872C110.431 27.1038 109.069 24.337 108.574 20.9599L108.562 20.6753C108.438 16.9126 109.346 13.5529 112.012 10.7849C114.809 7.8805 118.513 6.75354 122.45 6.68667Z" fill="#EAE9E8"/>
    <path d="M122.45 6.68667C123.519 5.06847 124.704 3.69807 126.329 2.61251C128.582 1.10779 131.267 0.350786 133.955 0.947408C136.123 1.42853 137.886 2.88983 139.073 4.71299C135.36 5.78812 134.093 7.21556 131.94 10.4097C131.373 11.9654 130.888 13.5931 130.751 15.2516L128.143 14.1993C127.102 14.2271 125.052 14.0181 124.161 14.4679L123.011 15.0269C122.568 15.4299 122.05 16.0372 121.541 16.3305L120.578 17.9936L119.911 18.0347C116.81 17.9791 113.883 18.3172 111.046 19.656C110.244 20.0347 109.402 20.7086 108.574 20.9599L108.562 20.6753C108.438 16.9126 109.346 13.5529 112.012 10.7849C114.809 7.8805 118.513 6.75354 122.45 6.68667Z" fill="#DB8778"/>
    <path d="M128.144 14.1998C128.618 12.9278 129.018 11.3638 129.999 10.3934C130.884 10.0356 131.062 10.1529 131.941 10.4102C131.374 11.9659 130.889 13.5936 130.752 15.2521L128.144 14.1998Z" fill="#353C3A"/>
    <path d="M123.011 15.0277C122.074 14.3833 120.996 13.7256 120.238 12.8667C119.746 12.31 119.489 11.7041 119.523 10.9619L120.016 10.7188C122.091 11.1738 122.979 12.8713 124.161 14.4687L123.011 15.0277Z" fill="#353C3A"/>
    <path d="M119.91 18.0352C119.52 17.9869 119.08 17.9521 118.701 17.8404C118.068 17.6537 117.966 17.3914 117.725 16.8475C117.995 16.4688 118.06 16.3643 118.489 16.1759C119.525 15.7205 120.525 15.9512 121.54 16.331L120.577 17.9941L119.91 18.0352Z" fill="#353C3A"/>
    <path d="M125.082 8.37402C125.432 8.52542 125.776 8.70606 125.997 9.03086C126.885 10.335 126.736 12.9383 126.575 14.4494L125.341 14.0829C125.172 13.8976 125.041 13.7503 124.936 13.519C124.209 11.906 124.509 9.9792 125.082 8.37402Z" fill="#353C3A"/>
    <path d="M119.912 18.0352L120.579 17.9941C119.766 21.0687 119.328 24.1783 121.03 27.0671C122.245 29.1291 124.215 30.5171 126.281 31.6357C124.414 32.0977 122.652 32.6364 120.951 33.5665C120.352 32.6208 114.677 30.3165 113.185 29.1878C110.432 27.1044 109.071 24.3376 108.575 20.9605C109.403 20.7092 110.245 20.0353 111.047 19.6566C113.885 18.3178 116.812 17.9797 119.912 18.0352Z" fill="#EBB19F"/>
    <path d="M148.673 50.3462C148.76 50.3112 148.85 50.2799 148.937 50.2408C149.895 49.8115 151.997 45.9982 152.856 44.9404C157.772 38.8853 164.45 35.2688 172.362 35.4399C173.85 35.4717 175.633 35.5279 177.048 35.9456C177.732 36.1465 177.847 36.2542 178.218 36.8485C177.992 41.0457 172.477 47.6792 169.313 50.5257C162.791 56.3935 154.689 59.7694 146.496 62.5727C150.752 57.184 155.731 51.8961 161.057 47.564C162.91 46.0569 170.735 41.268 171.302 40.2829C171.05 40.1188 171.016 40.0143 170.703 40.0597C163.628 41.0888 149.999 55.624 145.767 61.1195C146.303 57.3777 147.223 53.844 148.673 50.3462Z" fill="#97A898"/>
    <path d="M139.902 60.9945L139.995 60.7525C139.809 60.0285 138.657 59.8757 137.981 59.7408C128.418 57.8302 117.584 56.3747 111.149 48.1369C110.142 46.8478 108.371 44.2957 108.577 42.6767C109.942 41.5089 113.969 41.1019 115.717 41.0038C124.559 40.5061 132.908 45.2221 138.403 51.8891C139.72 53.4853 140.75 55.9763 142.224 57.2718L142.565 56.6361C142.716 57.5303 142.777 58.234 142.646 59.1421C141.584 58.8017 139.905 56.6201 138.906 55.8296C133.271 51.362 123.385 45.2861 115.927 45.5003L115.734 45.7634C117.592 47.2102 120.731 47.7852 122.947 48.5537C129.632 50.8728 137.086 55.27 141.347 61.0533L141.118 61.3103C140.747 61.2261 140.226 61.1778 139.902 60.9945Z" fill="#97A898"/>
    <path d="M158.63 6.53174C161.977 10.715 163.233 15.3638 162.654 20.6784C161.878 27.8179 157.881 34.4934 152.296 38.9279L152.065 39.1109C153.356 32.7406 154.314 26.0254 156.207 19.8216C156.621 18.472 157.542 16.0351 156.859 14.7504L156.381 14.9415C153.466 19.5552 151.99 33.1426 150.215 39.1917C147.161 34.4696 147.424 26.7917 148.571 21.4748C149.711 16.1805 152.265 10.4247 157.003 7.44621C157.53 7.11591 158.077 6.81919 158.63 6.53174Z" fill="#97A898"/>
    <path d="M131.94 10.4101C134.093 7.21595 135.36 5.78851 139.074 4.71338C140.295 7.29295 141.366 9.86095 142.159 12.6073C142.608 14.1566 143.393 19.9494 144.061 20.8083C141.688 21.288 140.04 22.5649 138.72 24.5744C137.986 25.6939 137.41 26.9696 136.879 28.1982C136.291 27.1103 135.339 25.7683 135.102 24.5637C135.334 24.2184 135.303 24.1391 135.275 23.7129C135.043 20.1462 133.364 17.5548 130.751 15.252C130.888 13.5935 131.374 11.9658 131.94 10.4101Z" fill="#EBB19F"/>
    <path d="M245.183 60.4912C242.917 60.4237 240.659 60.5485 238.401 60.7369C232.915 61.8433 226.327 63.7137 223.044 68.6485C221.405 71.1114 220.676 74.1533 221.258 77.0762C221.686 79.2233 222.836 81.1859 224.694 82.3922C226.413 83.5076 228.883 84.0171 230.895 83.5661C232.565 83.1918 233.986 82.1082 234.887 80.6649C235.909 79.0261 236.207 76.947 235.767 75.0738C235.495 73.918 234.705 73.0082 233.937 72.124C232.662 70.6552 231.448 69.257 232.771 66.9188C233.847 65.0178 236.401 63.8851 238.427 63.4172C241.559 62.6941 245.302 62.9153 248.07 64.6713C250.776 66.3894 252.287 69.2118 252.956 72.2832C253.781 76.0931 253.975 81.6509 251.755 84.9776C249.741 87.9964 244.616 89.1818 238.859 90.5135C230.608 92.4221 221.058 94.6313 217.503 102.969C216.136 106.173 216.545 109.463 216.853 111.94C217.025 113.316 217.164 114.442 216.95 115.161C216.988 115.211 217.026 115.26 217.063 115.309C217.508 115.909 217.869 116.556 218.229 117.203C218.492 117.676 218.755 118.148 219.052 118.603C221.524 122.404 224.859 124.056 229.268 124.735C235.92 125.76 243.296 124.299 248.753 120.257C250.055 119.292 252.464 117.123 252.722 115.449C252.744 115.478 252.766 115.507 252.787 115.537L252.814 115.576C253.612 116.771 253.896 117.967 254.164 119.092C254.726 121.458 255.214 123.508 260.242 124.578C264.014 125.38 269.856 124.973 273.203 122.748C273.889 122.294 274.595 121.585 274.728 120.744C274.746 120.633 274.75 120.551 274.75 120.463C274.75 120.393 274.747 120.32 274.745 120.226C274.689 120.173 274.641 120.126 274.599 120.085C274.35 119.841 274.304 119.796 273.851 119.807C273.187 119.824 272.507 119.946 271.828 120.067C270.1 120.376 268.376 120.684 266.932 119.274C264.791 117.182 264.832 112.34 264.858 109.234C264.86 108.994 264.862 108.765 264.863 108.547C264.915 101.831 264.929 95.1147 264.909 88.3981C264.883 73.2136 264.396 61.0623 245.183 60.4912ZM252.053 88.5266L252.881 88.5012L253.13 88.848C253.368 90.7795 253.3 92.7219 253.232 94.6638C253.2 95.553 253.169 96.4421 253.167 97.3301C253.165 98.5015 253.204 99.6941 253.244 100.894C253.34 103.765 253.437 106.681 252.962 109.45C252.695 111.015 252.122 112.513 251.28 113.858C249.427 116.811 246.367 118.648 243.001 119.366C239.014 120.217 235.885 119.336 232.533 117.187C232.329 116.824 232.132 116.478 231.942 116.146C229.982 112.707 228.811 110.653 229.207 106.063C229.953 97.393 238.568 94.1717 245.641 91.5275L246.185 91.324L246.564 91.1815C246.83 91.0815 247.124 90.9765 247.434 90.8654L247.439 90.8638C248.923 90.3334 250.793 89.6653 251.81 88.7544C251.844 88.7248 251.876 88.6945 251.909 88.6639C251.957 88.6183 252.004 88.572 252.053 88.5266Z" fill="#353C3A"/>
    <path d="M246.291 91.2837C246.204 91.3163 246.117 91.349 246.029 91.3818L246.184 91.3239L246.291 91.2837Z" fill="#EAE9E8"/>
    <path d="M47.0242 26.2549C48.427 26.1011 49.95 26.153 51.3569 26.2916C56.7789 26.7823 61.7788 29.4229 65.2413 33.6239C67.5531 36.4782 68.8994 39.939 68.478 43.6394C68.2313 45.805 67.4222 47.8983 65.6651 49.2776C63.7872 50.752 61.0968 51.4829 58.7297 51.1908C56.7363 50.9448 54.9965 49.8905 53.781 48.2986C52.6989 46.8816 52.2276 44.7719 52.4922 43.0164C53.0732 39.1611 57.1112 38.8065 59.6742 36.8641C60.3629 36.3424 60.6518 35.8133 60.776 34.9677C60.6194 33.98 60.217 33.3356 59.5527 32.6197C57.0869 29.9631 53.3331 28.7377 49.7789 28.6489C46.7173 28.5719 43.6864 29.3882 41.4641 31.5842C36.157 36.827 37.6128 53.3729 37.6285 60.5506C41.1816 60.5839 61.5246 59.9555 63.3579 61.305C63.538 61.9025 63.4592 62.2487 63.3055 62.8459C61.9131 63.798 41.1706 63.2938 37.6082 63.3453L37.6374 83.8748C39.4681 83.8785 41.3072 83.902 43.1361 83.8256C56.0152 83.2874 52.1593 73.9907 55.2547 70.9118C55.5789 70.5893 55.7477 70.6776 56.1953 70.6776C57.0915 71.8665 56.6871 94.0932 56.6865 97.4292C56.6964 98.2122 56.6402 98.9785 56.5759 99.7578L56.0227 100.209C55.3063 100.218 55.1302 100.329 54.5701 99.8504C54.1324 96.2443 53.0987 91.6699 50.4071 89.0834C47.0699 85.8763 41.8928 86.5487 37.6371 86.6031C37.6125 92.7294 36.258 115.052 40.1843 119.308C42.3328 121.637 46.2706 121.33 47.7841 123.226L47.7169 123.64C46.8757 124.106 45.8425 124.132 44.9 124.172C42.1936 124.284 17.8817 124.224 16.5461 123.818C16.2786 123.737 16.3817 123.722 16.1049 123.757C16.0525 123.764 16.0018 123.78 15.9506 123.791L15.8151 123.472C16.181 122.101 21.7472 121.018 23.3391 119.356C26.8282 115.714 25.5649 92.9295 25.5301 86.6492C23.0788 86.6101 18.1741 87.4664 16.3333 85.9547C15.9911 85.2863 15.8962 85.1621 15.9735 84.4268C17.3335 83.2107 23.5715 83.792 25.5064 83.7859C25.5377 76.9397 25.533 70.0931 25.4925 63.2466C22.5146 63.3022 18.5229 63.8267 15.8215 62.4013L15.75 61.5482C17.607 59.998 23.0947 60.5677 25.5105 60.5868C25.4025 51.6954 25.531 41.1067 31.4283 33.8242C35.3317 29.0038 41.0449 26.8787 47.0242 26.2549Z" fill="#353C3A"/>
    <path d="M90.1384 21.75L90.4725 21.8157C90.927 22.3478 90.9279 22.6332 90.9629 23.3112C91.3433 30.6782 90.9342 38.2829 90.9313 45.6765L90.9189 92.451C90.918 98.0661 90.1121 113.171 91.8973 117.578C93.8788 122.471 98.508 120.926 100 123.225L99.7669 123.837C98.4153 124.363 75.1847 124.079 71.4368 124.194C71.14 124.194 71.1985 124.226 70.9774 124.139C70.4088 123.913 70.4239 123.688 70.1859 123.164C70.7481 121.234 74.8778 122.013 76.562 120.139C78.0219 118.515 78.5907 116.356 78.8576 114.244C79.4111 109.866 79.2415 105.368 79.2397 100.963L79.223 82.4124L79.2099 55.8495C79.2169 49.9525 79.3657 44.0201 79.082 38.1298C78.7702 31.6514 78.9902 30.4431 72.5863 28.4614C71.9393 28.261 71.0199 28.0451 70.5402 27.5393C70.2383 27.2209 70.3283 27.1127 70.3211 26.7019L70.5903 26.736C71.0969 26.1481 73.4223 26.0216 74.2352 25.9183C79.7973 25.2102 85.0989 24.3134 90.1384 21.75Z" fill="#353C3A"/>
    <path d="M184.589 60.1392L185.461 60.2489C185.53 60.3574 185.643 60.5146 185.692 60.6434C186.341 62.3346 185.984 73.66 185.33 75.2012C186.265 74.388 186.668 73.2397 187.223 72.1596C189.189 68.3413 191.618 64.9912 195.54 62.9871C199.616 60.9043 204.905 59.8193 209.325 61.3069C211.78 62.1328 213.763 63.8272 214.889 66.1679C216.062 68.6097 216.293 71.484 215.35 74.041C214.58 76.1215 213.034 77.9773 210.996 78.9077C209.065 79.7892 206.923 79.7133 204.969 78.9332C202.994 78.1441 201.321 76.734 200.516 74.7328C198.965 70.8841 201.052 69.4923 202.253 66.328C202.488 65.7157 202.444 65.5267 202.175 64.9527C201.35 64.5552 200.485 64.7251 199.631 64.9301C188.758 67.5374 186.207 80.3875 185.987 89.9769C185.932 92.3391 186.019 100.619 186.019 100.619C186.019 100.619 185.929 108.577 186.019 110.863C186.236 116.418 186.618 120.184 192.559 121.966C193.427 122.227 194.533 122.389 195.196 123.04C195.372 123.213 195.286 123.527 195.283 123.764C195.216 123.814 195.149 123.868 195.083 123.916C194.715 124.169 167.049 124.265 165.515 123.881L165.33 123.243C165.97 120.829 170.619 122.038 172.411 119.757C173.302 118.621 173.647 117.142 173.849 115.742C174.941 108.232 174.414 100.117 174.397 92.5142C174.382 86.2157 174.784 79.5064 173.928 73.2834C172.738 64.6241 169.585 68.6896 166.004 65.9621C165.692 65.2786 165.741 65.2057 165.912 64.4626C172.011 63.3078 178.782 63.256 184.389 60.2483L184.589 60.1392Z" fill="#353C3A"/>
  </symbol>


  <!-- Checkmark for custom checkbox -->
  <symbol id="icon-check" viewBox="0 0 24 24" fill="none">
    <path d="M20 6L9 17l-5-5" stroke="currentColor" stroke-width="3" stroke-linecap="round" stroke-linejoin="round"/>
  </symbol>
</svg>
